PathFileType	4	(X/Y/Z)	Apose_0-50.trc
DataRate	CameraRate	NumFrames	NumMarkers	Units	OrigDataRate	OrigDataStartFrame	OrigNumFrames
30	30	8	22	m	30	40	50
Frame#	Time	Hip			RHip			RKnee			RAnkle			RBigToe			RSmallToe			RHeel			LHip			LKnee			LAnkle			LBigToe			LSmallToe			LHeel			Neck			Head			Nose			RShoulder			RElbow			RWrist			LShoulder			LElbow			LWrist		
		X1	Y1	Z1	X2	Y2	Z2	X3	Y3	Z3	X4	Y4	Z4	X5	Y5	Z5	X6	Y6	Z6	X7	Y7	Z7	X8	Y8	Z8	X9	Y9	Z9	X10	Y10	Z10	X11	Y11	Z11	X12	Y12	Z12	X13	Y13	Z13	X14	Y14	Z14	X15	Y15	Z15	X16	Y16	Z16	X17	Y17	Z17	X18	Y18	Z18	X19	Y19	Z19	X20	Y20	Z20	X21	Y21	Z21	X22	Y22	Z22
41	1.3666666666666667	0.04837175625121917	0.920488812738975	0.35793112876587185	0.03928943813037205	0.8961049799338059	0.47425374409859083	0.006945488415323374	0.5044182978308708	0.498344047123909	-0.010241257548243501	0.11566201280629289	0.5145005729574617	0.20850170829345885	0.04155575070322075	0.5627230831159533	0.14856340179206787	0.03252469687751502	0.6149739099366859	-0.055935650040803545	0.02781912202057868	0.5049632110947289	0.04165819532533601	0.8938267211326086	0.24599674471232305	0.036096291080679424	0.5102427237344234	0.21823608520491608	0.0005996981449505768	0.11825854422572368	0.21005459650772146	0.21037788466690704	0.03857217500175202	0.19256344576328036	0.16263559733736838	0.037327958356161386	0.13217064021113445	-0.034539257636568975	0.04032349249785748	0.22109685105542826	0.07146787173293526	1.571718820191472	0.3474511132980832	0.2049308685611591	1.8113872038260073	0.34496109568633193	0.27574428215074537	1.6477682614134197	0.3641130191221098	0.03572316094403909	1.4927882650323328	0.5370457052597997	0.08446759842962952	1.2399163914900122	0.7154503565065268	0.13778419787484122	1.0398798973409376	0.8905303224303032	0.020693498588641224	1.4744691770927623	0.1485686345244603	0.027727644901774495	1.2273856759313813	0.004664830126482047	0.08216450161331555	1.0177726425651996	-0.145711625840739
42	1.4	0.04933060742767305	0.9217855950931523	0.35883218704272446	0.04206601756786051	0.8954972084382642	0.47326157318224726	0.006888102418145973	0.5071241881523426	0.4980606068916152	-0.010571501019081449	0.1144011377201453	0.512183529080145	0.21053483201992834	0.03905918132089692	0.5605142829940837	0.15043193418582074	0.031334959624115	0.6133766783703133	-0.05528293076483849	0.026510467007176828	0.5053953068734484	0.03982220069386586	0.8931044768550565	0.24724951679456433	0.03507167713538363	0.5103900638755768	0.2176568932034675	0.0015971518132081193	0.11693650988047462	0.20987990868933504	0.21116056846703357	0.039724327083593296	0.18996976590172016	0.1607117323986407	0.03694744638395032	0.1323833005195485	-0.034012652928111835	0.03966681291424734	0.2235385371045546	0.06909912103376722	1.5759188232609793	0.3471641439331625	0.17851072302365814	1.806710968577322	0.32585609904840673	0.27249983752673057	1.651995779467133	0.3616280154717329	0.03786243589048352	1.4937600399279387	0.5361595007619928	0.07027839372507112	1.2386278496911998	0.7120949427593972	0.13874727981843055	1.0411344814642043	0.8896488155839449	0.018147934634070384	1.47462930141321	0.14865224244246686	0.026782002223932212	1.2256947331401284	0.0038649474770294703	0.08258617077256726	1.017559942002979	-0.14534090339123076
43	1.4333333333333333	0.050884066327961754	0.9225962990198028	0.35971086790368306	0.04360068617751897	0.8949767716858716	0.47351313697654196	0.0070291817853804905	0.508414046219635	0.5001284196201243	-0.0068150392181537955	0.11255940594045055	0.5165150532310249	0.2105087233519181	0.03839688589292242	0.5597122426200393	0.1516168008038196	0.028672395791858322	0.6132137880092472	-0.05339713982541452	0.026386563338489617	0.5026010013881085	0.040622408308452145	0.8921953815345993	0.24840783721090567	0.015096713609219147	0.506427341137351	0.22186505895166242	-0.006987768826481651	0.10666792682191337	0.20335704338978566	0.2107233885808639	0.03578619801346914	0.19057337097112215	0.16195829893978983	0.03468946394493612	0.13042054790823254	-0.035951464085377104	0.039137860427921486	0.22202374167988967	0.07356866363184944	1.5954997924850516	0.35126486642009386	0.17612774320674363	1.8098028826913692	0.32613811802228787	0.2699842518430621	1.654224058444483	0.3614631188948012	0.038462908106878885	1.495381771272636	0.5346370997706846	0.08389377619227414	1.231217746071	0.7177313738789617	0.16135778380853338	1.027012748684916	0.8825764051054976	0.021636842990493906	1.475187670288483	0.1443864893904567	0.026990576767567446	1.2262931495109382	0.00540435478333173	0.08525307540008502	1.0163015647423	-0.14394094893041628
44	1.4666666666666666	0.05252597944685118	0.9211999195267684	0.36008098747044776	0.044054211317059375	0.8932694943282858	0.4758362627675926	0.005903487212562442	0.5052313307228888	0.5000943836105987	-0.006288212880966249	0.09886874820879424	0.5198521661299386	0.20764585053065987	0.038648553001252535	0.5557857482286142	0.15267441240094268	0.027413010971707945	0.6117151600080302	-0.05457063842434556	0.02629144127038511	0.50203467097	0.04209469343522476	0.8899557964598892	0.24796235498232125	0.01611220707666526	0.5070026799137576	0.22382638286054882	0.00026874104709705826	0.11765595686596995	0.20748699115796632	0.2109801608849269	0.03856537271882257	0.18943746357820676	0.16484267744084163	0.03614439805338167	0.13090739183504652	-0.03403568864921285	0.039634993285316396	0.22364654478912355	0.06611260017805454	1.5767140692509554	0.34660222512981825	0.17168841899110057	1.810459997089325	0.3253411901472221	0.26883402326604666	1.6559554135258936	0.3585742497223343	0.038139579465693844	1.49443060863125	0.5362544950672731	0.09095894907416885	1.2401894818987256	0.7111963240060235	0.16505839519743032	1.0246256426527303	0.8808258915106316	0.02070808173791451	1.4759193973610902	0.1445386237393489	0.029027129089199924	1.2256945364503724	0.005019616850232921	0.08620946644549926	1.0151315753700878	-0.14653915719443977
45	1.5	0.051142806387143476	0.9212457962508475	0.36057729751762657	0.04509591134625574	0.8952347147126579	0.4746482213095749	0.008922966494649479	0.5070275521751105	0.4995249350227217	-0.005875721255121545	0.10173057636818178	0.5176731171832052	0.21036685569600025	0.03974272647456491	0.5607199410558656	0.15335917381167213	0.028771541526165137	0.6138888930343008	-0.05157434497054537	0.029479751928291532	0.5009743374767538	0.04344745679706348	0.891588291168738	0.24910464717857778	0.01777356043049014	0.5077124689043591	0.2245853738462211	0.0017011013425642424	0.11921275504785242	0.21050102144835256	0.21117877271644753	0.03832119105435733	0.19129728161836024	0.16476423030452403	0.03574686313331236	0.13203732960858694	-0.034556022901465346	0.04072573515463271	0.22266907284920892	0.06446784098439709	1.5751118778837372	0.34765660233368345	0.16884956445036478	1.8126319901357755	0.3247636252088782	0.26452700374683186	1.658119736994995	0.3592321884549929	0.0389557647554212	1.4924176629678445	0.5378854238661647	0.08697617055191391	1.2296033879079717	0.7182447474496567	0.16500178479248623	1.0280404931623004	0.8804194951854725	0.017765073202805706	1.475361571935741	0.14698383289416425	0.028715227796529182	1.2259696695763125	0.007143245676637274	0.085106223108967	1.0143796851548483	-0.14525660085123568
46	1.5333333333333334	0.05176499216656331	0.9211824276021577	0.3600276328376487	0.04429956883886727	0.8966835741690882	0.4765613061402465	0.008210931215666602	0.5083470158284765	0.4999375688595187	-0.008041023521484485	0.10100951254598038	0.5191831698429807	0.2120247462502541	0.04239507662671544	0.5650184305333105	0.1364175280621735	0.026407454603724196	0.6330819443940741	-0.05189277492072205	0.030323490336611927	0.5026088126323826	0.04478928183187115	0.8914329420957887	0.24883713288087972	0.0307481087735112	0.5008912638806662	0.22008572640813295	0.0026816534537848742	0.1180558841311249	0.2092756649244617	0.21010872842262915	0.03835201394546687	0.19211048326155594	0.1630586789410354	0.038816714185072196	0.13295425054457563	-0.03455497083841933	0.03922585527072215	0.2233969795789178	0.06821418380712783	1.5939227611624889	0.35010702795897747	0.18447808211845104	1.8165133954889798	0.3444473964695629	0.2625672220749103	1.6601237304181933	0.3577074508863887	0.03834485634237615	1.4907867204854406	0.5372750935666544	0.09026649805793316	1.2409936147582898	0.7147626223902219	0.17044870501682327	1.0271211676968455	0.8780356981150491	0.016803975190874693	1.4765053565586337	0.14656750014592942	0.027478443364834747	1.2256889053960178	0.0030909124125937434	0.08681155445201907	1.014934181804642	-0.14564466801579481
47	1.5666666666666667	0.05503130971476048	0.9210955521120971	0.36001459107494144	0.046061610472709104	0.8976446685332923	0.4776200651433799	0.010146757004286066	0.5054642125364284	0.5012013941138399	-0.009999154035338508	0.1017552276181046	0.5190145753098162	0.21146172697319457	0.043837336484660226	0.5650093820283746	0.13789628141104637	0.025823444807732576	0.6334937696231041	-0.05383825794036769	0.03136850910647367	0.5031464770894148	0.046880622267939806	0.891728840074768	0.249097212926321	0.02259532189229463	0.5084829459149125	0.22213374076051506	-0.004685608650103598	0.10960773190597264	0.2028432576016099	0.21049798964090322	0.037918373274017765	0.19279307896986408	0.16586522449270957	0.037735601470774226	0.1350966619506098	-0.03268580745342152	0.04345680805259533	0.22216490598246943	0.06594052683921231	1.5741492087000486	0.3459114258509028	0.18308967223960815	1.8188873405156623	0.34159080360193117	0.26157137773195116	1.664050177510619	0.35468057289654753	0.04015881258955901	1.4918035404497525	0.5376376401108621	0.08949583983159058	1.2403717907591778	0.7155551342293563	0.16820734491035264	1.0291645780753982	0.8780073237985528	0.015172612909716202	1.4753444804937674	0.14810641216217227	0.026148238617838927	1.2242265375985815	0.000961560662946362	0.08585995263380665	1.0133082992674651	-0.14761553123446974
48	1.6	0.054858328393632166	0.9194237686357882	0.35883348790097663	0.04791516553163493	0.8972550140118001	0.47709276522505684	0.01099044133063672	0.5081423262983841	0.5027313070270586	-0.008305068673019587	0.09968067957004338	0.5198821865744173	0.21340279148894845	0.04033024944674159	0.560552093086818	0.1520137158504433	0.03010054619153265	0.6136962354198677	-0.05430035383385807	0.030227666890102995	0.5025245640124436	0.046868085494200004	0.8923135249413622	0.24856949000997572	0.024093440450689795	0.5080247373161342	0.22220416143729224	0.003812200998935878	0.12034606494405324	0.21104062801236834	0.20907947243219754	0.03726352956122061	0.19078592727332624	0.16315364111299244	0.03688701462045533	0.1328409443770319	-0.03101287556538484	0.044536856537187496	0.2236113118246058	0.06444956171786803	1.5748248746980889	0.34361991098535055	0.16078079888868482	1.816910275013564	0.3241260974741382	0.259469298972703	1.6636940039538815	0.35612257880120884	0.038282068259521136	1.490321626606891	0.5361282242604777	0.09204312308945634	1.240890062176705	0.7146378008819236	0.16926503829168157	1.0280382963199086	0.8805359811402068	0.012879054339964049	1.474750842173763	0.14638195155791203	0.025894380304637966	1.224595569046552	0.00023458226648363008	0.08687295749156956	1.0168382400145701	-0.14735398445744408
